HIERARCHY
ROOT joint_Root
{
	OFFSET 0.0 0.0 0.0
	CHANNELS 6 Xposition Yposition Zposition Zrotation Xrotation Yrotation 
	JOINT Hips
	{
		OFFSET 4.5925 91.4895 -427.239
		CHANNELS 6 Xposition Yposition Zposition Zrotation Xrotation Yrotation 
		JOINT Spine
		{
			OFFSET 15.7357 0.0 0.0
			CHANNELS 6 Xposition Yposition Zposition Zrotation Xrotation Yrotation 
			JOINT Chest
			{
				OFFSET 8.98455 -0.406207 0.0
				CHANNELS 6 Xposition Yposition Zposition Zrotation Xrotation Yrotation 
				JOINT Neck
				{
					OFFSET 16.3773 0.0 0.0
					CHANNELS 6 Xposition Yposition Zposition Zrotation Xrotation Yrotation 
					JOINT Head
					{
						OFFSET 6.45672 0.0 0.0
						CHANNELS 6 Xposition Yposition Zposition Zrotation Xrotation Yrotation 
						End Site
						{
							OFFSET 0.0 0.0 0.0
						}
					}
				}
				JOINT Shoulder_L
				{
					OFFSET 12.9942 -0.242716 4.98039
					CHANNELS 6 Xposition Yposition Zposition Zrotation Xrotation Yrotation 
					JOINT UpperArm_L
					{
						OFFSET 5.34809 0.0 0.0
						CHANNELS 6 Xposition Yposition Zposition Zrotation Xrotation Yrotation 
						JOINT LowerArm_L
						{
							OFFSET 24.3286 1.87007e-05 0.0
							CHANNELS 6 Xposition Yposition Zposition Zrotation Xrotation Yrotation 
							JOINT Hand_L
							{
								OFFSET 22.2916 0.0 0.0
								CHANNELS 6 Xposition Yposition Zposition Zrotation Xrotation Yrotation 
								End Site
								{
									OFFSET 0.0 0.0 0.0
								}
							}
						}
					}
				}
				JOINT Shoulder_R
				{
					OFFSET 12.9945 -0.242716 -4.98039
					CHANNELS 6 Xposition Yposition Zposition Zrotation Xrotation Yrotation 
					JOINT UpperArm_R
					{
						OFFSET -5.34813 0.0 0.0
						CHANNELS 6 Xposition Yposition Zposition Zrotation Xrotation Yrotation 
						JOINT LowerArm_R
						{
							OFFSET -24.3289 0.000322201 0.0
							CHANNELS 6 Xposition Yposition Zposition Zrotation Xrotation Yrotation 
							JOINT Hand_R
							{
								OFFSET -22.2915 -0.000108084 0.0
								CHANNELS 6 Xposition Yposition Zposition Zrotation Xrotation Yrotation 
								End Site
								{
									OFFSET 0.0 0.0 0.0
								}
							}
						}
					}
				}
			}
		}
		JOINT UpperLeg_L
		{
			OFFSET -2.19248 -6.46944 0.0
			CHANNELS 6 Xposition Yposition Zposition Zrotation Xrotation Yrotation 
			JOINT LowerLeg_L
			{
				OFFSET 39.0811 0.0 -1.23785e-05
				CHANNELS 6 Xposition Yposition Zposition Zrotation Xrotation Yrotation 
				JOINT Foot_L
				{
					OFFSET 40.9854 0.0 -1.26872e-05
					CHANNELS 6 Xposition Yposition Zposition Zrotation Xrotation Yrotation 
					JOINT Toes_L
					{
						OFFSET 11.7543 0.0 0.0
						CHANNELS 6 Xposition Yposition Zposition Zrotation Xrotation Yrotation 
						End Site
						{
							OFFSET 0.0 0.0 0.0
						}
					}
				}
			}
		}
		JOINT UpperLeg_R
		{
			OFFSET -2.19251 6.46944 0.0
			CHANNELS 6 Xposition Yposition Zposition Zrotation Xrotation Yrotation 
			JOINT LowerLeg_R
			{
				OFFSET -39.0811 -0.00228153 -0.0401928
				CHANNELS 6 Xposition Yposition Zposition Zrotation Xrotation Yrotation 
				JOINT Foot_R
				{
					OFFSET -40.9854 0.0 0.0
					CHANNELS 6 Xposition Yposition Zposition Zrotation Xrotation Yrotation 
					JOINT Toes_R
					{
						OFFSET -11.7543 0.0 0.0
						CHANNELS 6 Xposition Yposition Zposition Zrotation Xrotation Yrotation 
						End Site
						{
							OFFSET 0.0 0.0 0.0
						}
					}
				}
			}
		}
	}
}
MOTION
Frames:	6
Frame Time:	0.0333333
0.000000 0.000000 0.000000 0.000000 0.000000 -0.000000 -4.912390 90.725800 1.155460 89.969100 -0.930744 11.336000 15.735700 0.000005 -0.000001 84.061800 81.015300 -83.257600 8.984550 -0.406207 -0.000000 10.124100 -1.830530 1.769650 16.377300 -0.000001 -0.000001 0.862078 -5.706370 4.157020 6.456720 -0.000001 -0.000000 -16.332500 -7.336200 7.120910 12.994200 -0.242716 4.980390 -91.564000 6.161990 -75.728600 5.348090 -0.000007 -0.000001 -61.288400 38.022000 -17.404300 24.328600 0.000019 0.000005 5.740770 25.518800 -13.135400 22.291600 -0.000001 0.000005 8.252420 5.212480 2.403920 12.994500 -0.242716 -4.980390 88.481400 12.182800 -82.839700 -5.348130 -0.000001 -0.000004 -60.673100 22.496500 -12.150300 -24.328900 0.000322 -0.000009 -0.040227 -0.162235 -13.570700 -22.291500 -0.000108 -0.000004 15.050900 5.334500 -0.916436 -2.192480 -6.469440 -0.000000 -171.743000 -10.590200 2.644390 39.081100 -0.000007 -0.000012 -0.207845 0.374035 29.060500 40.985400 -0.000006 -0.000013 -2.609320 7.329090 -69.612700 11.754300 -0.000000 0.000003 -0.000071 -0.000765 -16.607100 -2.192510 6.469440 -0.000001 175.691000 21.231700 -175.758000 -39.081100 -0.002282 -0.040193 -0.151163 0.274325 29.383000 -40.985400 0.000008 0.000006 4.865790 9.330300 -72.353800 -11.754300 -0.000006 -0.000006 -0.003417 -0.045233 -18.412800
0.000000 0.000000 0.000000 0.000000 0.000000 -0.000000 -4.887810 90.741600 1.060700 89.954600 -1.016080 11.298200 15.735700 0.000005 -0.000001 84.507900 80.977800 -83.723300 8.984550 -0.406207 -0.000000 10.211100 -1.699000 1.720060 16.377300 -0.000001 -0.000001 1.154670 -5.845930 4.244870 6.456720 -0.000001 -0.000000 -15.831600 -7.699720 7.338710 12.994200 -0.242716 4.980390 -91.564900 6.055870 -75.482200 5.348090 -0.000007 -0.000001 -60.888700 35.334300 -17.007600 24.328600 0.000019 0.000005 5.438720 25.830300 -12.326300 22.291600 -0.000001 0.000005 9.002990 5.196070 2.816360 12.994500 -0.242716 -4.980390 88.441500 12.196500 -82.661700 -5.348130 -0.000001 -0.000004 -59.222700 21.657000 -11.965600 -24.328900 0.000322 -0.000009 0.200798 0.828902 -13.686500 -22.291500 -0.000108 -0.000004 14.712100 5.345390 -1.239110 -2.192480 -6.469440 -0.000000 -171.753000 -10.666600 2.559270 39.081100 -0.000007 -0.000012 -0.205987 0.370933 29.044600 40.985400 -0.000006 -0.000013 -2.595460 7.295320 -69.544300 11.754300 -0.000000 0.000003 -0.000077 -0.000823 -16.609300 -2.192510 6.469440 -0.000001 175.742000 21.210600 -175.877000 -39.081100 -0.002282 -0.040193 -0.146668 0.266564 29.362600 -40.985400 0.000008 0.000006 4.882990 9.386680 -72.265400 -11.754300 -0.000006 -0.000006 -0.003265 -0.043564 -18.344900
0.000000 0.000000 0.000000 0.000000 0.000000 -0.000000 -4.859580 90.752500 0.969563 89.933700 -0.976284 11.303900 15.735700 0.000005 -0.000001 84.747600 80.941900 -83.978100 8.984550 -0.406207 -0.000000 10.288600 -1.630520 1.684870 16.377300 -0.000001 -0.000001 1.548420 -5.942440 4.311220 6.456720 -0.000001 -0.000000 -15.376700 -7.944250 7.489670 12.994200 -0.242716 4.980390 -91.571000 5.957920 -75.199000 5.348090 -0.000007 -0.000001 -60.266700 33.527400 -16.763500 24.328600 0.000019 0.000005 5.374480 25.368200 -12.384700 22.291600 -0.000001 0.000005 9.459200 5.190330 2.960410 12.994500 -0.242716 -4.980390 88.388400 12.186100 -82.408000 -5.348130 -0.000001 -0.000004 -57.982000 20.112000 -11.707400 -24.328900 0.000322 -0.000009 0.019778 0.083201 -14.091900 -22.291500 -0.000108 -0.000004 13.533000 5.341260 -1.115680 -2.192480 -6.469440 -0.000000 -171.770000 -10.653300 2.477300 39.081100 -0.000007 -0.000012 -0.205829 0.370325 29.065900 40.985400 -0.000006 -0.000013 -2.565280 7.296350 -69.487500 11.754300 -0.000000 0.000003 -0.000073 -0.000783 -16.607800 -2.192510 6.469440 -0.000001 175.719000 21.321700 -175.917000 -39.081100 -0.002282 -0.040193 -0.147438 0.268062 29.350800 -40.985400 0.000008 0.000006 4.889020 9.477370 -72.198500 -11.754300 -0.000006 -0.000006 -0.003351 -0.044517 -18.383700
0.000000 0.000000 0.000000 0.000000 0.000000 -0.000000 -4.801990 90.773200 0.876743 89.914500 -0.931955 11.239400 15.735700 0.000005 -0.000001 84.929200 80.948700 -84.163700 8.984550 -0.406207 -0.000000 10.279700 -1.572700 1.671510 16.377300 -0.000001 -0.000001 2.002610 -6.011590 4.417530 6.456720 -0.000001 -0.000000 -14.855300 -8.057690 7.504110 12.994200 -0.242716 4.980390 -91.586500 5.900600 -74.921600 5.348090 -0.000007 -0.000001 -59.618000 32.364100 -16.630700 24.328600 0.000019 0.000005 5.474210 24.590000 -12.969600 22.291600 -0.000001 0.000005 9.582170 5.198520 2.756010 12.994500 -0.242716 -4.980390 88.308100 12.243900 -82.070900 -5.348130 -0.000001 -0.000004 -56.727600 17.708700 -11.598100 -24.328900 0.000322 -0.000009 -0.249550 -0.964302 -14.451500 -22.291500 -0.000108 -0.000004 11.922100 5.348120 -1.324430 -2.192480 -6.469440 -0.000000 -171.846000 -10.581000 2.345910 39.081100 -0.000007 -0.000012 -0.202388 0.364471 29.043400 40.985400 -0.000006 -0.000013 -2.527160 7.244190 -69.421200 11.754300 -0.000000 0.000003 -0.000078 -0.000833 -16.609700 -2.192510 6.469440 -0.000001 175.724000 21.414700 -176.021000 -39.081100 -0.002282 -0.040193 -0.146023 0.266145 29.295700 -40.985400 0.000008 0.000006 4.872580 9.538940 -72.097100 -11.754300 -0.000006 -0.000006 -0.003398 -0.045031 -18.404600
0.000000 0.000000 0.000000 0.000000 0.000000 -0.000000 -4.711430 90.789400 0.806685 89.921900 -0.877737 11.271200 15.735700 0.000005 -0.000001 85.023300 80.929000 -84.270100 8.984550 -0.406207 -0.000000 10.321000 -1.546590 1.645060 16.377300 -0.000001 -0.000001 2.390140 -6.036320 4.479990 6.456720 -0.000001 -0.000000 -14.162200 -8.049600 7.576250 12.994200 -0.242716 4.980390 -91.615500 5.859740 -74.557200 5.348090 -0.000007 -0.000001 -59.289900 30.695800 -16.424000 24.328600 0.000019 0.000005 5.882720 24.021800 -14.203500 22.291600 -0.000001 0.000005 8.810540 5.230510 1.936740 12.994500 -0.242716 -4.980390 88.208800 12.290900 -81.642800 -5.348130 -0.000001 -0.000004 -55.369900 14.826800 -11.880100 -24.328900 0.000322 -0.000009 -0.335320 -1.285030 -14.582000 -22.291500 -0.000108 -0.000004 10.911000 5.363480 -1.788260 -2.192480 -6.469440 -0.000000 -171.911000 -10.628900 2.325590 39.081100 -0.000007 -0.000012 -0.199793 0.359986 29.030700 40.985400 -0.000006 -0.000013 -2.437290 7.308940 -69.369100 11.754300 -0.000000 0.000003 -0.000074 -0.000790 -16.608100 -2.192510 6.469440 -0.000001 175.617000 21.535300 -176.018000 -39.081100 -0.002282 -0.040193 -0.145913 0.266176 29.274800 -40.985400 0.000008 0.000006 4.843130 9.652640 -72.022000 -11.754300 -0.000006 -0.000006 -0.003355 -0.044560 -18.385400
0.000000 0.000000 0.000000 0.000000 0.000000 -0.000000 -4.606500 90.808100 0.712564 89.910700 -0.778171 11.226100 15.735700 0.000005 -0.000001 84.890900 80.948700 -84.133800 8.984550 -0.406207 -0.000000 10.278500 -1.584840 1.656010 16.377300 -0.000001 -0.000001 2.894580 -5.993970 4.554950 6.456720 -0.000001 -0.000000 -13.549900 -7.975270 7.622220 12.994200 -0.242716 4.980390 -91.690800 5.978100 -74.175600 5.348090 -0.000007 -0.000001 -59.270900 27.625000 -16.093600 24.328600 0.000019 0.000005 6.665210 24.178600 -15.923300 22.291600 -0.000001 0.000005 6.997620 5.278280 0.661610 12.994500 -0.242716 -4.980390 88.144000 12.212600 -81.290800 -5.348130 -0.000001 -0.000004 -53.903600 11.795100 -12.485600 -24.328900 0.000322 -0.000009 -0.420679 -1.617560 -14.545600 -22.291500 -0.000108 -0.000004 10.752300 5.367700 -1.915460 -2.192480 -6.469440 -0.000000 -172.021000 -10.533000 2.176710 39.081100 -0.000007 -0.000012 -0.197483 0.355708 29.038600 40.985400 -0.000006 -0.000013 -2.362030 7.288210 -69.306800 11.754300 -0.000000 0.000003 -0.000077 -0.000822 -16.609300 -2.192510 6.469440 -0.000001 175.592000 21.578300 -176.114000 -39.081100 -0.002282 -0.040193 -0.144042 0.263203 29.240900 -40.985400 0.000008 0.000006 4.761360 9.614110 -71.915200 -11.754300 -0.000006 -0.000006 -0.003467 -0.045782 -18.435100
